<svg width="188" height="43" viewBox="0 0 188 43" fill="none" xmlns="http://www.w3.org/2000/svg">
<path d="M78.4487 42.4489L78.1607 41.8749L76.2111 42.7913C73.7213 41.7758 70.9049 43.1767 68.3541 41.9507C67.7317 41.6516 67.171 42.3184 66.3624 42.0713C65.617 41.8435 64.6276 42.2939 63.6787 41.9882C63.2412 41.8473 62.6317 42.2619 62.0966 42.4256L60.9911 41.4785L60.1526 42.2897C59.8632 42.1843 59.5157 42.081 59.1879 41.9321C58.8629 41.7846 58.5578 41.5913 58.2439 41.4181L58.6254 41.2476L58.2439 40.9026C58.0701 40.6155 58.157 40.759 58.2439 40.9026C58.1032 40.8139 57.9625 40.7252 58.2439 40.9026C58.2437 41.0744 58.2437 41.2463 58.2439 41.4181C57.327 41.6802 56.3767 41.7969 55.4256 41.7642C54.5501 41.5987 53.5375 42.5334 52.8067 41.4418C50.7396 42.2529 48.9508 40.9913 47.0887 40.517C46.447 40.3536 45.9294 41.2171 45.3517 40.4948C45.2153 40.4001 45.0576 40.3429 44.8936 40.3286C44.7297 40.3143 44.565 40.3434 44.415 40.4132C43.5158 41.1314 42.5734 39.9759 41.7059 40.5481C41.504 40.6812 41.2934 40.8007 41.1253 40.903C39.824 40.4305 38.713 39.1386 37.2561 40.3044C35.2184 39.012 32.942 39.4331 30.5883 39.3374L31.5013 37.5702L31.2236 37.2654L29.4687 38.2833H25.1706L24.3028 35.3204L23.5373 37.5063L21.1133 37.8061L20.6799 36.8042L19.5476 37.8L17.3823 37.0714L18.2312 36.0504C17.3987 36.0111 17.3987 36.011 16.53 36.7504C16.0441 36.6754 15.5581 36.6015 14.7937 36.4851L13.8747 35.1207L11.3924 36.0966L10.4861 35.2587H8.04368L9.768 33.9707L8.98013 33.0734L5.0812 33.4514L5.05495 33.7857L3.06591 32.8508L3.66049 31.728L2.29781 31.5402L2.04159 29.4849L0.729496 30.0125L0.66062 28.5329C0.941371 28.356 0.801333 28.4442 0.66062 28.5329C0.747542 28.3893 0.834 28.2464 0.66062 28.5329L0 27.6131C1.02279 25.8767 2.75589 25.5886 4.25429 24.913C4.43981 24.8294 4.55418 24.5815 4.70152 24.4097L5.58275 24.2133L5.40478 23.8659L4.70152 24.4097C4.09664 24.2299 3.47678 24.1094 2.84985 24.0495C2.17378 24.1481 1.51011 24.322 0.870533 24.5681L3.25193 22.3832L2.70646 21.4566L4.59252 20.4181C5.19874 19.022 6.19806 17.8453 7.46118 17.0402C8.33378 16.5929 8.81089 15.3871 9.54102 14.5951C10.533 13.3538 11.8577 12.4402 13.3502 11.9681C14.0235 11.7907 14.5185 10.9087 15.1524 10.2909C17.9807 9.71991 19.7786 6.97613 22.438 5.82383L23.1944 6.32559C23.5084 5.17214 24.7183 5.86724 25.4363 5.17511C26.0136 4.61863 27.1142 4.67389 27.8931 4.27555C28.6716 3.87742 29.7839 4.50145 30.2108 3.18918L30.5642 4.08662L34.6249 2.48212L36.725 2.83273L37.223 1.89717C38.2072 1.86618 39.1813 1.68314 40.1127 1.35425C41.0057 0.875062 41.6886 1.91381 42.614 1.28988C43.5082 0.899904 44.4705 0.702766 45.4416 0.71057C46.2667 0.596094 47.1027 0.563923 48.0271 0.4877L48.2364 -0.0963864H49.5321L49.903 1.42883L50.357 -0.329663C51.1676 -0.329663 51.9939 -0.294358 52.8161 -0.338215C53.9651 -0.399514 55.113 -0.500861 56.2578 -0.620745C57.2363 -0.57677 58.2167 -0.632901 59.1844 -0.788196C59.6204 -0.936486 60.0851 -0.972192 60.5376 -0.892272C60.9901 -0.812351 61.4167 -0.619189 61.7797 -0.329796L61.1785 1.50241C61.9773 0.676971 62.8319 0.326408 61.7797 -0.329796C61.8459 -0.486677 61.9463 -0.625785 62.0731 -0.73629C62.1999 -0.846795 62.3498 -0.925757 62.511 -0.967048C62.6723 -1.00834 62.8406 -1.01086 63.003 -0.974406C63.1653 -0.937949 63.3173 -0.863444 63.4472 -0.756774C64.2734 -0.338007 65.2057 -0.194277 66.1149 -0.34544C66.9451 -0.260368 67.7798 -0.230142 68.6137 -0.25502C70.0913 -0.278334 71.5685 -0.187292 73.0328 0.0174347C73.791 0.00296233 74.5478 -0.0543268 75.2999 -0.154258C75.5918 -0.0393047 76.3102 0.710017 77.0695 -0.21856C77.5371 0.0853031 78.0606 0.286593 78.6072 0.372686C79.1538 0.458779 79.7118 0.427838 80.2463 0.281802L81.2925 2.34855L82.5382 1.48179L81.5399 0.996349L81.9998 0.418162C82.7047 0.402653 83.4084 0.485167 84.0919 0.66357C84.9205 0.831947 85.7734 0.829598 86.6011 0.656675C87.4007 0.454008 88.0967 1.49839 88.8511 0.724888C89.3946 0.997612 89.9906 1.14167 90.5952 1.1465C91.1999 1.15132 91.798 1.01681 92.3456 0.752797C92.7811 0.627333 93.2454 0.660965 93.6596 0.84799C94.0738 1.03502 94.4123 1.36387 94.6176 1.77871C94.8296 2.13339 95.1114 2.44466 95.4776 2.92945L97.514 1.21358C98.5916 1.41021 99.8794 0.78529 101.008 1.70294C102.542 1.08978 104.23 1.01474 105.809 1.48948C106.599 1.62951 107.406 1.63305 108.197 1.49996C108.676 1.46929 109.144 1.26243 109.624 1.22737C110.605 1.20593 111.582 1.35003 112.518 1.65389C113.296 1.85968 114.242 1.32618 115.124 1.24898C115.414 1.26999 115.693 1.37518 115.928 1.55233C116.883 1.32341 117.863 1.22616 118.843 1.26317C120.46 1.588 122.125 1.14626 124.233 1.57699C124.695 1.39298 125.682 0.696659 126.611 1.59509L128.05 1.14093L128.81 2.30632L130.945 1.22512C132.185 1.02832 133.453 1.21626 134.588 1.76492C137.101 0.696607 139.491 1.95971 142.106 1.95995L142.678 1.41385C143.615 1.50979 144.547 1.46981 145.5 1.65249C146.449 1.65198 147.389 1.47321 148.274 1.12495L149.322 2.75232L150.503 1.74974C152.265 1.79089 154.027 1.72213 155.781 1.54384L156.218 1.95107H158.577L159.135 2.80655C160.367 2.62147 161.383 1.50291 162.769 1.84573L162.39 2.59316C163.897 3.25003 165.427 2.07018 166.878 2.84712L168.373 1.60589L169.087 2.48232C170.258 2.31758 171.723 2.78353 172.9 1.57732L173.987 2.54748H177.104L178.442 3.78579L179.281 3.38228L180.133 4.17498C181.637 3.07976 183.069 4.63042 184.585 4.34078C184.861 4.28788 185.215 4.65239 185.533 4.82424C185.252 5.00134 185.392 4.91291 185.533 4.82424C185.446 4.96864 185.358 5.11264 185.533 4.82424L187.026 4.8241L186.654 5.61833L188 6.49443L187.048 7.91663L186.167 8.11305L186.345 8.46048L187.048 7.91663L187.831 7.96409L187.971 10.2052L185.63 11.7857L185.931 12.2423L183.565 14.3089V16.2193L180.18 19.6814L180.41 20.0164C179.477 21.0793 178.541 22.1453 177.603 23.2143L177.797 23.5319C177.105 23.9024 176.443 24.3322 175.821 24.8166C174.623 26.2179 173.175 27.3702 171.556 28.2111C170.954 28.4431 170.571 29.265 170.024 29.8898L166.627 31.0226C166 32 165.5 31.5 164.823 32.6563C164.203 33.0304 163.599 33.4342 162.959 33.7692C162.382 34.071 161.994 34.7357 161.08 34.4333C160.768 34.3301 160.132 35.245 159.67 35.6717L158.762 35.2333L158.257 34.7179C158.083 34.4315 158.17 34.5743 158.257 34.7179C158.116 34.6292 157.976 34.5411 158.257 34.7179L158.762 35.2333L157.59 36.763H155.005L154.472 37.8049C153.595 37.5672 152.53 38.3915 151.69 37.2947C152.59 36.9068 152.163 36.3406 151.921 35.7414L151.117 35.9871L151.69 37.2947C150.899 37.6591 150.038 37.8323 149.172 37.8009C148.306 37.7695 147.459 37.5345 146.694 37.1138L145.495 38.1475C142.751 38.3836 140.073 39.1447 137.6 40.3919C134.892 40.1364 132.162 40.4737 129.589 41.3819C129.355 41.4853 129.103 41.5384 128.849 41.5378C128.594 41.5372 128.342 41.483 128.108 41.3785C126.891 40.6012 125.799 41.1034 124.6 41.3708C123.704 41.606 122.768 41.6368 121.858 41.4611C119.627 40.9658 117.448 42.0315 115.208 41.9426C114.485 42.8436 113.603 42.234 112.796 42.1776C111.895 42.1001 110.988 42.1309 110.094 42.2694C109.128 42.3368 108.157 42.3002 107.198 42.1601C106.147 41.9722 105.076 41.9395 104.017 42.0631C103.401 42.267 102.765 42.3958 102.12 42.447C101.532 42.4555 100.941 42.4241 100.354 42.4556C99.7563 42.4877 99.1626 42.5918 98.5651 42.6295C98.3396 42.6438 97.9858 42.4442 97.8985 42.5398C97.011 43.5121 96.2199 42.6414 95.4052 42.6427C94.3036 42.9175 93.1654 43.0032 92.0367 42.8962C90.0017 42.5108 87.9319 42.3557 85.8642 42.4338C85.4836 42.3664 85.1131 42.2487 84.7617 42.0838L82.4671 42.9189C81.305 42.4355 81.2197 42.4361 79.4942 42.9772L78.4487 42.4489ZM47.1312 39.3563C47.4122 39.1793 47.2719 39.2676 47.1312 39.3563C47.218 39.2127 47.3048 39.0696 47.1312 39.3563C46.8502 39.5334 46.9905 39.445 47.1312 39.3563C47.0444 39.4999 46.9577 39.6431 47.1312 39.3563ZM77.9464 1.88265L78.29 2.3156L79.4022 1.50049L79.2148 1.18296L77.9464 1.88265ZM161.567 30.5673C161.662 29.6559 161.662 29.6559 160.851 29.8753L161.567 30.5673ZM85.9928 1.91534L85.5406 1.92488L85.6603 2.70419L85.8831 2.7038L85.9928 1.91534ZM24.4336 7.21773L24.886 7.20805L24.7661 6.42873L24.5433 6.42913L24.4336 7.21773ZM181.425 15.5202L181.393 15.219L180.618 15.3098L180.649 15.612L181.425 15.5202ZM5.02707 26.9534L5.01937 26.4916L4.25365 26.6142L4.25423 26.8415L5.02707 26.9534ZM64.2387 39.2288L64.205 38.9278L63.4314 39.0183L63.4634 39.3206L64.2387 39.2288ZM91.0439 40.0553L90.5916 40.0631L90.7116 40.8442L90.9343 40.8437L91.0439 40.0553ZM147.425 3.69139L147.589 3.5429L147.437 3.38155L147.275 3.61304L147.425 3.69139ZM32.8884 4.02185L32.7428 3.85487L32.5847 4.00952L32.8115 4.17492L32.8884 4.02185ZM129.241 4.20667L129.405 4.05825L129.253 3.89696L129.091 4.12832L129.241 4.20667ZM3.86515 21.9723C3.84262 22.0172 3.78509 22.0804 3.79834 22.1167C3.8347 22.1811 3.88159 22.2384 3.93696 22.2863L4.02644 21.9723H3.86515ZM1.84475 27.6417C1.82221 27.6866 1.76457 27.7498 1.7779 27.7861C1.81426 27.8504 1.86119 27.9078 1.91659 27.9557L2.00611 27.6417H1.84475ZM94.0073 39.0695L93.8617 38.9025L93.7036 39.0571L93.9303 39.2225L94.0073 39.0695ZM3.46751 27.4L3.63122 27.2515L3.47962 27.0901L3.3174 27.3216L3.46751 27.4Z" fill="#E7E8FF"/>
</svg>
